HIERARCHY
ROOT Hips
{
	OFFSET -13.091600 -28.302996 44.698402
	CHANNELS 6 Xposition Yposition Zposition Zrotation Xrotation Yrotation
	JOINT Chest
	{
		OFFSET -0.673000 0.623899 5.369202
		CHANNELS 6 Xposition Yposition Zposition Zrotation Xrotation Yrotation
		JOINT Chest2
		{
			OFFSET 0.000000 0.000000 4.415001
			CHANNELS 6 Xposition Yposition Zposition Zrotation Xrotation Yrotation
			JOINT Neck
			{
				OFFSET 0.000000 0.000002 10.273300
				CHANNELS 6 Xposition Yposition Zposition Zrotation Xrotation Yrotation
				JOINT Head
				{
					OFFSET 0.000000 0.000000 2.173897
					CHANNELS 6 Xposition Yposition Zposition Zrotation Xrotation Yrotation
					End Site
					{
						OFFSET 0.000000 0.000000 9.961800
					}
				}
			}
			JOINT LeftCollar
			{
				OFFSET 2.359900 -0.565201 5.928101
				CHANNELS 6 Xposition Yposition Zposition Zrotation Xrotation Yrotation
				JOINT LeftShoulder
				{
					OFFSET 5.443700 0.000000 0.000000
					CHANNELS 6 Xposition Yposition Zposition Zrotation Xrotation Yrotation
					JOINT LeftElbow
					{
						OFFSET 0.000000 0.000000 -10.615799
						CHANNELS 6 Xposition Yposition Zposition Zrotation Xrotation Yrotation
						JOINT LeftWrist
						{
							OFFSET 0.000000 -0.000002 -13.110302
							CHANNELS 6 Xposition Yposition Zposition Zrotation Xrotation Yrotation
							End Site
							{
								OFFSET 0.000000 0.000000 -2.173901
							}
						}
					}
				}
			}
			JOINT RightCollar
			{
				OFFSET -2.636600 -1.718800 6.889698
				CHANNELS 6 Xposition Yposition Zposition Zrotation Xrotation Yrotation
				JOINT RightShoulder
				{
					OFFSET -4.139101 0.000000 0.000000
					CHANNELS 6 Xposition Yposition Zposition Zrotation Xrotation Yrotation
					JOINT RightElbow
					{
						OFFSET 0.000000 0.000000 -10.471802
						CHANNELS 6 Xposition Yposition Zposition Zrotation Xrotation Yrotation
						JOINT RightWrist
						{
							OFFSET 0.000000 0.000000 -12.281898
							CHANNELS 6 Xposition Yposition Zposition Zrotation Xrotation Yrotation
							End Site
							{
								OFFSET 0.000000 -0.000002 -2.173901
							}
						}
					}
				}
			}
		}
	}
	JOINT LeftHip
	{
		OFFSET 2.273400 0.176701 -2.518002
		CHANNELS 6 Xposition Yposition Zposition Zrotation Xrotation Yrotation
		JOINT LeftKnee
		{
			OFFSET 0.000000 -0.000002 -20.456402
			CHANNELS 6 Xposition Yposition Zposition Zrotation Xrotation Yrotation
			JOINT LeftAnkle
			{
				OFFSET 0.000000 -0.000002 -16.635300
				CHANNELS 6 Xposition Yposition Zposition Zrotation Xrotation Yrotation
				End Site
				{
					OFFSET 0.000000 -8.812399 0.000001
				}
			}
		}
	}
	JOINT RightHip
	{
		OFFSET -1.914800 0.018101 -2.699299
		CHANNELS 6 Xposition Yposition Zposition Zrotation Xrotation Yrotation
		JOINT RightKnee
		{
			OFFSET 0.000000 -0.000002 -20.148901
			CHANNELS 6 Xposition Yposition Zposition Zrotation Xrotation Yrotation
			JOINT RightAnkle
			{
				OFFSET 0.000000 -0.000002 -16.838301
				CHANNELS 6 Xposition Yposition Zposition Zrotation Xrotation Yrotation
				End Site
				{
					OFFSET 0.000000 -8.328398 0.000001
				}
			}
		}
	}
}
MOTION
Frames: 4
Frame Time: 0.041667
-8.575099 -7.384588 37.889503 354.932747 -2.877695 -3.993391 -0.673002 0.623899 5.369208 4.930865 5.194645 -4.458771 -0.000000 0.000001 4.415005 3.981056 1.562183 0.958906 -0.000004 -0.000001 10.273307 -39.036577 6.632610 18.980826 -0.000001 -0.000003 2.173902 0.092016 -3.274981 -1.101935 2.359898 -0.565202 5.928105 -3.577956 6.841664 -4.729290 5.443695 -0.000001 -0.000002 -51.252712 15.335506 -52.885769 0.000003 0.000004 -10.615797 -156.074822 -120.696273 204.243024 -0.000003 0.000003 -13.110291 -175.049375 15.136258 -13.778173 -2.636601 -1.718805 6.889706 29.154447 15.033344 -9.374230 -4.139092 0.000003 0.000003 246.966472 -153.326573 259.497765 0.000001 0.000000 -10.471804 8.474345 -54.943510 -21.002668 -0.000002 -0.000003 -12.281900 52.158060 10.312847 98.592210 2.273398 0.176704 -2.517998 -136.145847 -154.522812 -155.234190 0.000002 -0.000003 -20.456396 -125.830663 34.056194 92.710433 -0.000003 -0.000005 -16.635302 64.353735 -12.425971 32.963401 -1.914796 0.018103 -2.699304 30.457241 203.840357 123.135142 0.000003 0.000000 -20.148901 57.874338 26.859842 17.493081 0.000002 -0.000001 -16.838303 42.299508 76.980071 2.955504
-8.797898 -7.378195 37.919704 354.903132 -2.827728 -3.923541 -0.673001 0.623897 5.369209 4.970351 5.204240 -4.476332 0.000001 0.000000 4.415006 4.097580 1.512534 0.966064 -0.000004 -0.000000 10.273301 -39.042601 6.702446 18.933015 0.000003 -0.000003 2.173908 0.091420 -3.234287 -1.110564 2.359898 -0.565202 5.928092 -3.741030 7.137979 -4.640992 5.443697 -0.000002 -0.000002 -50.994305 15.415220 -53.534405 -0.000004 0.000001 -10.615795 -155.961264 -120.811922 204.269580 -0.000000 -0.000001 -13.110295 -174.875328 15.121491 -13.764094 -2.636601 -1.718804 6.889700 29.488024 15.407556 -9.706962 -4.139092 0.000009 -0.000004 247.041822 -153.463805 260.234825 -0.000008 0.000002 -10.471798 8.228607 -54.858700 -21.055790 0.000001 -0.000001 -12.281901 52.248174 10.179103 98.670163 2.273396 0.176702 -2.518006 -136.115712 -154.236395 -155.559935 0.000002 -0.000002 -20.456396 -125.919810 33.984399 92.725999 0.000001 -0.000005 -16.635303 64.271855 -12.307527 32.808718 -1.914800 0.018102 -2.699302 30.456599 203.713288 123.229877 0.000001 -0.000001 -20.148899 58.049190 26.984356 17.258411 0.000003 -0.000001 -16.838305 42.049885 76.164471 2.883575
-9.040300 -7.368795 37.947704 354.768386 -2.792515 -3.723207 -0.672998 0.623896 5.369214 5.123630 5.195605 -4.590961 0.000001 -0.000002 4.415005 4.192095 1.485834 0.972973 -0.000003 0.000000 10.273301 -39.042355 6.836595 18.875477 0.000001 -0.000005 2.173893 0.091650 -3.241799 -1.112729 2.359900 -0.565205 5.928101 -3.866591 7.374262 -4.660719 5.443697 -0.000002 -0.000002 -50.778662 15.482270 -54.082285 -0.000000 0.000008 -10.615798 -155.889492 -120.940985 204.236685 -0.000006 0.000001 -13.110302 -174.691637 15.105223 -13.738244 -2.636601 -1.718807 6.889705 29.820562 15.736346 -9.935210 -4.139092 0.000002 0.000003 247.122036 -153.462999 260.890495 -0.000011 -0.000005 -10.471797 7.993873 -54.723892 -21.150644 -0.000005 -0.000003 -12.281895 52.744920 10.080055 98.133474 2.273401 0.176701 -2.518003 -135.898922 -153.870119 -155.985033 0.000003 -0.000001 -20.456396 -126.126533 33.884125 92.777519 -0.000001 -0.000005 -16.635303 64.197768 -12.184129 32.616383 -1.914794 0.018096 -2.699298 30.674123 203.570756 123.473810 -0.000007 0.000002 -20.148901 58.165194 27.078172 17.035504 0.000002 -0.000006 -16.838303 42.063740 75.485960 2.591354
-9.302399 -7.356693 37.973999 354.753988 -2.744674 -3.640364 -0.673002 0.623896 5.369206 5.144738 5.179445 -4.540542 0.000002 -0.000001 4.415013 4.273339 1.451932 0.976523 -0.000003 0.000001 10.273304 -39.045476 7.001831 18.804756 -0.000004 -0.000006 2.173900 0.116339 -3.248398 -1.085356 2.359902 -0.565201 5.928108 -3.932153 7.543287 -4.746096 5.443697 -0.000006 -0.000002 -50.608922 15.555493 -54.563540 0.000003 0.000004 -10.615797 -155.958245 -121.042618 204.089891 -0.000002 0.000002 -13.110295 -174.439821 15.084796 -13.717467 -2.636598 -1.718805 6.889709 30.084511 15.983746 -10.131991 -4.139094 0.000006 -0.000005 247.239652 -153.482588 261.445134 -0.000009 -0.000002 -10.471794 7.853334 -54.608923 -21.161816 -0.000004 -0.000004 -12.281898 52.821333 9.928396 98.315997 2.273397 0.176702 -2.517992 -135.647803 -153.561436 -156.288020 -0.000001 -0.000005 -20.456396 -126.408182 33.772550 92.853731 -0.000005 -0.000006 -16.635302 64.110362 -12.049159 32.380882 -1.914801 0.018098 -2.699300 30.736736 203.465407 123.574610 -0.000007 -0.000004 -20.148901 58.276602 27.165151 16.819851 0.000003 -0.000002 -16.838303 42.070437 74.984685 2.311216
